<mxfile host="Electron" agent="Mozilla/5.0 (Windows NT 10.0; Win64; x64) AppleWebKit/537.36 (KHTML, like Gecko) draw.io/25.0.2 Chrome/128.0.6613.186 Electron/32.2.5 Safari/537.36" version="25.0.2">
  <diagram name="第 1 页" id="0y8TBqnc1FQP6B8073aI">
    <mxGraphModel dx="1037" dy="704" grid="1" gridSize="10" guides="1" tooltips="1" connect="1" arrows="1" fold="1" page="1" pageScale="1" pageWidth="1169" pageHeight="827" math="0" shadow="0">
      <root>
        <mxCell id="0" />
        <mxCell id="1" parent="0" />
        <mxCell id="EPTBJKJMWub8JuDauKGC-5" value="" style="edgeStyle=orthogonalEdgeStyle;rounded=0;orthogonalLoop=1;jettySize=auto;html=1;" edge="1" parent="1" source="EPTBJKJMWub8JuDauKGC-1" target="EPTBJKJMWub8JuDauKGC-2">
          <mxGeometry relative="1" as="geometry" />
        </mxCell>
        <mxCell id="EPTBJKJMWub8JuDauKGC-1" value="&lt;font style=&quot;font-size: 15px;&quot;&gt;生成用户首句&lt;/font&gt;" style="rounded=1;whiteSpace=wrap;html=1;fillColor=#d5e8d4;strokeColor=#82b366;" vertex="1" parent="1">
          <mxGeometry x="360" y="120" width="120" height="40" as="geometry" />
        </mxCell>
        <mxCell id="EPTBJKJMWub8JuDauKGC-6" value="" style="edgeStyle=orthogonalEdgeStyle;rounded=0;orthogonalLoop=1;jettySize=auto;html=1;" edge="1" parent="1" source="EPTBJKJMWub8JuDauKGC-2" target="EPTBJKJMWub8JuDauKGC-4">
          <mxGeometry relative="1" as="geometry" />
        </mxCell>
        <mxCell id="EPTBJKJMWub8JuDauKGC-2" value="&lt;span style=&quot;font-size: 15px;&quot;&gt;生成 assistant 回复&lt;/span&gt;" style="rounded=1;whiteSpace=wrap;html=1;fillColor=#d5e8d4;strokeColor=#82b366;" vertex="1" parent="1">
          <mxGeometry x="350" y="200" width="140" height="40" as="geometry" />
        </mxCell>
        <mxCell id="EPTBJKJMWub8JuDauKGC-12" value="" style="edgeStyle=orthogonalEdgeStyle;rounded=0;orthogonalLoop=1;jettySize=auto;html=1;" edge="1" parent="1" source="EPTBJKJMWub8JuDauKGC-4" target="EPTBJKJMWub8JuDauKGC-11">
          <mxGeometry relative="1" as="geometry" />
        </mxCell>
        <mxCell id="EPTBJKJMWub8JuDauKGC-18" style="edgeStyle=orthogonalEdgeStyle;rounded=0;orthogonalLoop=1;jettySize=auto;html=1;entryX=1;entryY=0.5;entryDx=0;entryDy=0;" edge="1" parent="1" source="EPTBJKJMWub8JuDauKGC-4" target="EPTBJKJMWub8JuDauKGC-7">
          <mxGeometry relative="1" as="geometry">
            <Array as="points">
              <mxPoint x="540" y="310" />
              <mxPoint x="540" y="480" />
            </Array>
          </mxGeometry>
        </mxCell>
        <mxCell id="EPTBJKJMWub8JuDauKGC-4" value="&lt;font style=&quot;font-size: 15px;&quot;&gt;调用工具返回结果/&lt;/font&gt;&lt;div&gt;&lt;font style=&quot;font-size: 15px;&quot;&gt;确认不调用工具&lt;/font&gt;&lt;/div&gt;" style="ellipse;whiteSpace=wrap;html=1;fillColor=#ffe6cc;strokeColor=#d79b00;" vertex="1" parent="1">
          <mxGeometry x="340" y="280" width="160" height="60" as="geometry" />
        </mxCell>
        <mxCell id="EPTBJKJMWub8JuDauKGC-7" value="&lt;font style=&quot;font-size: 15px;&quot;&gt;结束&lt;/font&gt;" style="ellipse;whiteSpace=wrap;html=1;fillColor=#dae8fc;strokeColor=#6c8ebf;" vertex="1" parent="1">
          <mxGeometry x="380" y="460" width="80" height="40" as="geometry" />
        </mxCell>
        <mxCell id="EPTBJKJMWub8JuDauKGC-10" value="是" style="text;html=1;align=center;verticalAlign=middle;whiteSpace=wrap;rounded=0;" vertex="1" parent="1">
          <mxGeometry x="490" y="280" width="60" height="30" as="geometry" />
        </mxCell>
        <mxCell id="EPTBJKJMWub8JuDauKGC-17" style="edgeStyle=orthogonalEdgeStyle;rounded=0;orthogonalLoop=1;jettySize=auto;html=1;entryX=0;entryY=0.5;entryDx=0;entryDy=0;" edge="1" parent="1" source="EPTBJKJMWub8JuDauKGC-11" target="EPTBJKJMWub8JuDauKGC-2">
          <mxGeometry relative="1" as="geometry">
            <Array as="points">
              <mxPoint x="300" y="400" />
              <mxPoint x="300" y="220" />
            </Array>
          </mxGeometry>
        </mxCell>
        <mxCell id="EPTBJKJMWub8JuDauKGC-11" value="&lt;font style=&quot;font-size: 15px;&quot;&gt;生成用户回复&lt;/font&gt;" style="rounded=1;whiteSpace=wrap;html=1;fillColor=#d5e8d4;strokeColor=#82b366;" vertex="1" parent="1">
          <mxGeometry x="360" y="380" width="120" height="40" as="geometry" />
        </mxCell>
        <mxCell id="EPTBJKJMWub8JuDauKGC-13" value="否" style="text;html=1;align=center;verticalAlign=middle;whiteSpace=wrap;rounded=0;" vertex="1" parent="1">
          <mxGeometry x="380" y="340" width="60" height="30" as="geometry" />
        </mxCell>
      </root>
    </mxGraphModel>
  </diagram>
</mxfile>
